<svg width="517" height="707" viewBox="0 0 517 707" fill="none" xmlns="http://www.w3.org/2000/svg">
<rect x="2" y="1" width="514" height="705" rx="17" fill="#F13030" stroke="black" stroke-width="2"/>
<path d="M55 190.5H400C404.694 190.5 408.5 194.306 408.5 199V530C408.5 534.694 404.694 538.5 400 538.5H227.5H81.6806C78.6863 538.5 75.9129 536.924 74.3796 534.353L47.699 489.598C46.9185 488.289 46.5 486.731 46.5 485.19V484.423V483.657V482.894V482.134V481.375V480.619V479.866V479.114V478.365V477.618V476.874V476.132V475.392V474.654V473.919V473.185V472.454V471.726V470.999V470.275V469.552V468.833V468.115V467.399V466.686V465.974V465.265V464.558V463.853V463.15V462.449V461.751V461.054V460.36V459.667V458.977V458.289V457.602V456.918V456.236V455.556V454.877V454.201V453.527V452.855V452.184V451.516V450.85V450.185V449.523V448.862V448.203V447.546V446.892V446.239V445.587V444.938V444.291V443.645V443.001V442.359V441.719V441.081V440.444V439.81V439.177V438.546V437.916V437.289V436.663V436.039V435.416V434.796V434.177V433.559V432.944V432.33V431.717V431.107V430.498V429.891V429.285V428.681V428.079V427.478V426.879V426.281V425.685V425.091V424.498V423.906V423.317V422.728V422.142V421.557V420.973V420.391V419.81V419.231V418.653V418.077V417.502V416.929V416.357V415.786V415.217V414.65V414.083V413.518V412.955V412.393V411.832V411.273V410.715V410.158V409.602V409.048V408.496V407.944V407.394V406.845V406.297V405.751V405.206V404.662V404.119V403.578V403.038V402.499V401.961V401.425V400.889V400.355V399.822V399.29V398.759V398.23V397.701V397.174V396.647V396.122V395.598V395.075V394.553V394.032V393.513V392.994V392.476V391.959V391.444V390.929V390.415V389.903V389.391V388.88V388.371V387.862V387.354V386.847V386.341V385.836V385.332V384.828V384.326V383.825V383.324V382.824V382.325V381.827V381.33V380.833V380.338V379.843V379.349V378.856V378.364V377.872V377.381V376.891V376.402V375.913V375.425V374.938V374.451V373.965V373.48V372.996V372.512V372.029V371.547V371.065V370.584V370.103V369.623V369.144V368.665V368.187V367.71V367.233V366.756V366.28V365.805V365.33V364.856V364.382V363.909V363.437V362.964V362.493V362.021V361.55V361.08V360.61V360.141V359.672V359.203V358.735V358.267V357.8V357.332V356.866V356.399V355.933V355.468V355.003V354.538V354.073V353.609V353.145V352.681V352.217V351.754V351.291V350.828V350.366V349.904V349.442V348.98V348.519V348.057V347.596V347.135V346.674V346.214V345.753V345.293V344.832V344.372V343.912V343.452V342.993V342.533V342.073V341.614V341.154V340.695V340.236V339.776V339.317V338.858V338.398V337.939V337.48V337.02V336.561V336.102V335.642V335.183V334.723V334.263V333.804V333.344V332.884V332.424V331.964V331.503V331.043V330.582V330.122V329.661V329.2V328.738V328.277V327.815V327.353V326.891V326.429V325.967V325.504V325.041V324.577V324.114V323.65V323.186V322.721V322.256V321.791V321.326V320.86V320.394V319.927V319.461V318.993V318.526V318.058V317.589V317.121V316.651V316.182V315.712V315.241V314.77V314.298V313.827V313.354V312.881V312.408V311.934V311.459V310.984V310.509V310.033V309.556V309.079V308.601V308.123V307.644V307.164V306.684V306.203V305.722V305.24V304.757V304.274V303.789V303.305V302.819V302.333V301.846V301.359V300.871V300.382V299.892V299.402V298.91V298.418V297.926V297.432V296.938V296.443V295.947V295.45V294.952V294.454V293.954V293.454V292.953V292.451V291.949V291.445V290.94V290.435V289.929V289.421V288.913V288.404V287.893V287.382V286.87V286.357V285.843V285.328V284.812V284.295V283.776V283.257V282.737V282.216V281.693V281.17V280.645V280.119V279.593V279.065V278.536V278.006V277.474V276.942V276.408V275.874V275.338V274.801V274.262V273.723V273.182V272.64V272.097V271.553V271.007V270.46V269.912V269.362V268.812V268.26V267.706V267.152V266.596V266.038V265.48V264.92V264.358V263.796V263.231V262.666V262.099V261.531V260.961V260.39V259.817V259.243V258.668V258.091V257.513V256.933V256.351V255.769V255.184V254.598V254.011V253.422V252.832V252.24V251.646V251.051V250.454V249.856V249.256V248.655V248.051V247.447V246.84V246.232V245.623V245.011V244.398V243.784V243.167V242.549V241.93V241.308V240.685V240.06V239.433V238.805V238.175V237.543V236.909V236.274V235.636V234.997V234.356V233.714V233.069V232.423V231.774V231.124V230.472V229.818V229.163V228.505V227.845V227.184V226.521V225.855V225.188V224.519V223.848V223.174V222.499V221.822V221.143V220.462V219.779V219.094V218.407V217.717V217.026V216.333V215.637V214.94V214.24V213.539V212.835V212.129V211.421V210.711V209.998V209.284V208.567V207.849V207.128V206.405V205.679V204.952V204.222V203.49V202.756V202.019V201.281V200.54V199.796V199.051C46.5 194.347 50.3155 190.5 55 190.5Z" fill="#D9D9D9" stroke="#393434" stroke-width="3"/>
<circle cx="99.5" cy="508.5" r="11.5" fill="#FF0000" stroke="black" stroke-width="2"/>
<circle cx="215.5" cy="223.5" r="6.5" fill="#FF0000" stroke="black" stroke-width="2"/>
<circle cx="255.5" cy="223.5" r="6.5" fill="#FF0000" stroke="black" stroke-width="2"/>
<rect x="83.5562" y="250.865" width="288.701" height="230.894" rx="10" fill="#322D2D"/>
<rect x="315" y="489" width="56" height="6.20455" rx="3.10227" fill="#393434"/>
<rect x="315" y="499.636" width="56" height="6.20455" rx="3.10227" fill="#393434"/>
<rect x="315" y="511.159" width="56" height="6.20455" rx="3.10227" fill="#393434"/>
<rect x="315" y="521.795" width="56" height="6.20455" rx="3.10227" fill="#393434"/>
<path d="M121 74C121 97.7376 101.535 117 77.5 117C53.4649 117 34 97.7376 34 74C34 50.2624 53.4649 31 77.5 31C101.535 31 121 50.2624 121 74Z" fill="#D9D9D9" stroke="#393434" stroke-width="2"/>
<circle cx="77" cy="74" r="34" fill="#0D9CEC" stroke="#393434" stroke-width="2"/>
<circle cx="154.5" cy="37.5" r="6.5" fill="#FF0000" stroke="black" stroke-width="2"/>
<circle cx="202.5" cy="37.5" r="6.5" fill="#24922F" stroke="black" stroke-width="2"/>
<circle cx="178.5" cy="37.5" r="6.5" fill="#F6E65B" stroke="black" stroke-width="2"/>
<rect x="115" y="587" width="160" height="70" rx="6" fill="#64B876" stroke="#393434" stroke-width="2"/>
<g filter="url(#filter0_i_911_36)">
<path d="M1 134H203.5L296.736 74H515.5" stroke="#A10707" stroke-width="7"/>
</g>
<rect x="208.5" y="557.5" width="77" height="6" rx="3" fill="#393434" stroke="black"/>
<rect x="99.5" y="557.5" width="78" height="6" rx="3" fill="#D5002C" stroke="black"/>
<mask id="path-20-outside-1_911_36" maskUnits="userSpaceOnUse" x="308" y="573" width="99" height="99" fill="black">
<rect fill="white" x="308" y="573" width="99" height="99"/>
<path fill-rule="evenodd" clip-rule="evenodd" d="M355.5 574C348.873 574 343.5 579.373 343.5 586V608.5H321C314.373 608.5 309 613.873 309 620.5V624.5C309 631.127 314.373 636.5 321 636.5H343.5V659C343.5 665.627 348.873 671 355.5 671H359.5C366.127 671 371.5 665.627 371.5 659V636.5H394C400.627 636.5 406 631.127 406 624.5V620.5C406 613.873 400.627 608.5 394 608.5H371.5V586C371.5 579.373 366.127 574 359.5 574H355.5Z"/>
</mask>
<path fill-rule="evenodd" clip-rule="evenodd" d="M355.5 574C348.873 574 343.5 579.373 343.5 586V608.5H321C314.373 608.5 309 613.873 309 620.5V624.5C309 631.127 314.373 636.5 321 636.5H343.5V659C343.5 665.627 348.873 671 355.5 671H359.5C366.127 671 371.5 665.627 371.5 659V636.5H394C400.627 636.5 406 631.127 406 624.5V620.5C406 613.873 400.627 608.5 394 608.5H371.5V586C371.5 579.373 366.127 574 359.5 574H355.5Z" fill="#393434"/>
<path d="M343.5 608.5V609.5H344.5V608.5H343.5ZM343.5 636.5H344.5V635.5H343.5V636.5ZM371.5 636.5V635.5H370.5V636.5H371.5ZM371.5 608.5H370.5V609.5H371.5V608.5ZM344.5 586C344.5 579.925 349.425 575 355.5 575V573C348.32 573 342.5 578.82 342.5 586H344.5ZM344.5 608.5V586H342.5V608.5H344.5ZM321 609.5H343.5V607.5H321V609.5ZM310 620.5C310 614.425 314.925 609.5 321 609.5V607.5C313.82 607.5 308 613.32 308 620.5H310ZM310 624.5V620.5H308V624.5H310ZM321 635.5C314.925 635.5 310 630.575 310 624.5H308C308 631.68 313.82 637.5 321 637.5V635.5ZM343.5 635.5H321V637.5H343.5V635.5ZM344.5 659V636.5H342.5V659H344.5ZM355.5 670C349.425 670 344.5 665.075 344.5 659H342.5C342.5 666.18 348.32 672 355.5 672V670ZM359.5 670H355.5V672H359.5V670ZM370.5 659C370.5 665.075 365.575 670 359.5 670V672C366.68 672 372.5 666.18 372.5 659H370.5ZM370.5 636.5V659H372.5V636.5H370.5ZM394 635.5H371.5V637.5H394V635.5ZM405 624.5C405 630.575 400.075 635.5 394 635.5V637.5C401.18 637.5 407 631.68 407 624.5H405ZM405 620.5V624.5H407V620.5H405ZM394 609.5C400.075 609.5 405 614.425 405 620.5H407C407 613.32 401.18 607.5 394 607.5V609.5ZM371.5 609.5H394V607.5H371.5V609.5ZM370.5 586V608.5H372.5V586H370.5ZM359.5 575C365.575 575 370.5 579.925 370.5 586H372.5C372.5 578.82 366.68 573 359.5 573V575ZM355.5 575H359.5V573H355.5V575Z" fill="black" mask="url(#path-20-outside-1_911_36)"/>
<rect x="448.5" y="75.5" width="67" height="630" rx="8.5" fill="#F13030" stroke="#A10707" stroke-width="3"/>
<g filter="url(#filter1_i_911_36)">
<path d="M449 153H515.5" stroke="#A10707" stroke-width="4"/>
</g>
<g filter="url(#filter2_i_911_36)">
<path d="M449 638H515.5" stroke="#A10707" stroke-width="4"/>
</g>
<path d="M515 88V688.5C515 697.889 507.389 705.5 498 705.5H18.0157C8.62105 705.5 1.0075 697.88 1.01567 688.485L1.48436 149.485C1.49252 140.102 9.10129 132.5 18.4844 132.5H195.635C199.33 132.5 202.945 131.423 206.037 129.399L291.058 73.7742C293.825 71.9641 297.059 71 300.365 71H498C507.389 71 515 78.6112 515 88Z" fill="#F13030" stroke="black" stroke-width="2"/>
<rect x="447.5" y="71.5" width="67" height="633.5" rx="8.5" fill="#F13030" stroke="#A10707" stroke-width="3"/>
<g filter="url(#filter3_i_911_36)">
<path d="M448 149.437H514.5" stroke="#A10707" stroke-width="4"/>
</g>
<g filter="url(#filter4_i_911_36)">
<path d="M448 637.118H514.5" stroke="#A10707" stroke-width="4"/>
</g>
<defs>
<filter id="filter0_i_911_36" x="1" y="70.5" width="514.5" height="71" filterUnits="userSpaceOnUse" color-interpolation-filters="sRGB">
<feFlood flood-opacity="0" result="BackgroundImageFix"/>
<feBlend mode="normal" in="SourceGraphic" in2="BackgroundImageFix" result="shape"/>
<feColorMatrix in="SourceAlpha" type="matrix" values="0 0 0 0 0 0 0 0 0 0 0 0 0 0 0 0 0 0 127 0" result="hardAlpha"/>
<feOffset dy="4"/>
<feGaussianBlur stdDeviation="2"/>
<feComposite in2="hardAlpha" operator="arithmetic" k2="-1" k3="1"/>
<feColorMatrix type="matrix" values="0 0 0 0 0 0 0 0 0 0 0 0 0 0 0 0 0 0 0.25 0"/>
<feBlend mode="normal" in2="shape" result="effect1_innerShadow_911_36"/>
</filter>
<filter id="filter1_i_911_36" x="449" y="151" width="66.5" height="8" filterUnits="userSpaceOnUse" color-interpolation-filters="sRGB">
<feFlood flood-opacity="0" result="BackgroundImageFix"/>
<feBlend mode="normal" in="SourceGraphic" in2="BackgroundImageFix" result="shape"/>
<feColorMatrix in="SourceAlpha" type="matrix" values="0 0 0 0 0 0 0 0 0 0 0 0 0 0 0 0 0 0 127 0" result="hardAlpha"/>
<feOffset dy="4"/>
<feGaussianBlur stdDeviation="2"/>
<feComposite in2="hardAlpha" operator="arithmetic" k2="-1" k3="1"/>
<feColorMatrix type="matrix" values="0 0 0 0 0 0 0 0 0 0 0 0 0 0 0 0 0 0 0.25 0"/>
<feBlend mode="normal" in2="shape" result="effect1_innerShadow_911_36"/>
</filter>
<filter id="filter2_i_911_36" x="449" y="636" width="66.5" height="8" filterUnits="userSpaceOnUse" color-interpolation-filters="sRGB">
<feFlood flood-opacity="0" result="BackgroundImageFix"/>
<feBlend mode="normal" in="SourceGraphic" in2="BackgroundImageFix" result="shape"/>
<feColorMatrix in="SourceAlpha" type="matrix" values="0 0 0 0 0 0 0 0 0 0 0 0 0 0 0 0 0 0 127 0" result="hardAlpha"/>
<feOffset dy="4"/>
<feGaussianBlur stdDeviation="2"/>
<feComposite in2="hardAlpha" operator="arithmetic" k2="-1" k3="1"/>
<feColorMatrix type="matrix" values="0 0 0 0 0 0 0 0 0 0 0 0 0 0 0 0 0 0 0.25 0"/>
<feBlend mode="normal" in2="shape" result="effect1_innerShadow_911_36"/>
</filter>
<filter id="filter3_i_911_36" x="448" y="147.437" width="66.5" height="8" filterUnits="userSpaceOnUse" color-interpolation-filters="sRGB">
<feFlood flood-opacity="0" result="BackgroundImageFix"/>
<feBlend mode="normal" in="SourceGraphic" in2="BackgroundImageFix" result="shape"/>
<feColorMatrix in="SourceAlpha" type="matrix" values="0 0 0 0 0 0 0 0 0 0 0 0 0 0 0 0 0 0 127 0" result="hardAlpha"/>
<feOffset dy="4"/>
<feGaussianBlur stdDeviation="2"/>
<feComposite in2="hardAlpha" operator="arithmetic" k2="-1" k3="1"/>
<feColorMatrix type="matrix" values="0 0 0 0 0 0 0 0 0 0 0 0 0 0 0 0 0 0 0.25 0"/>
<feBlend mode="normal" in2="shape" result="effect1_innerShadow_911_36"/>
</filter>
<filter id="filter4_i_911_36" x="448" y="635.118" width="66.5" height="8" filterUnits="userSpaceOnUse" color-interpolation-filters="sRGB">
<feFlood flood-opacity="0" result="BackgroundImageFix"/>
<feBlend mode="normal" in="SourceGraphic" in2="BackgroundImageFix" result="shape"/>
<feColorMatrix in="SourceAlpha" type="matrix" values="0 0 0 0 0 0 0 0 0 0 0 0 0 0 0 0 0 0 127 0" result="hardAlpha"/>
<feOffset dy="4"/>
<feGaussianBlur stdDeviation="2"/>
<feComposite in2="hardAlpha" operator="arithmetic" k2="-1" k3="1"/>
<feColorMatrix type="matrix" values="0 0 0 0 0 0 0 0 0 0 0 0 0 0 0 0 0 0 0.25 0"/>
<feBlend mode="normal" in2="shape" result="effect1_innerShadow_911_36"/>
</filter>
</defs>
</svg>
