<svg width="964" height="708" viewBox="0 0 964 708" fill="none" xmlns="http://www.w3.org/2000/svg">
<rect x="1" y="1" width="514" height="705" rx="17" fill="#F13030" stroke="black" stroke-width="2"/>
<path d="M45.5 199.051C45.5 194.347 49.3155 190.5 54 190.5H399C403.694 190.5 407.5 194.306 407.5 199V530C407.5 534.694 403.694 538.5 399 538.5H226.5H80.6806C77.6863 538.5 74.9129 536.924 73.3796 534.353L46.699 489.598C45.9185 488.289 45.5 486.731 45.5 485.19V484.423V483.657V482.894V482.134V481.375V480.619V479.866V479.114V478.365V477.618V476.874V476.132V475.392V474.654V473.919V473.185V472.454V471.726V470.999V470.275V469.553V468.833V468.115V467.399V466.686V465.974V465.265V464.558V463.853V463.15V462.449V461.751V461.054V460.36V459.667V458.977V458.289V457.602V456.918V456.236V455.556V454.877V454.201V453.527V452.855V452.184V451.516V450.85V450.185V449.523V448.862V448.203V447.546V446.892V446.239V445.587V444.938V444.291V443.645V443.001V442.359V441.719V441.081V440.444V439.81V439.177V438.546V437.916V437.289V436.663V436.039V435.416V434.796V434.177V433.559V432.944V432.33V431.717V431.107V430.498V429.891V429.285V428.681V428.079V427.478V426.879V426.281V425.685V425.091V424.498V423.906V423.317V422.729V422.142V421.557V420.973V420.391V419.81V419.231V418.653V418.077V417.502V416.929V416.357V415.786V415.217V414.65V414.083V413.518V412.955V412.393V411.832V411.273V410.715V410.158V409.602V409.048V408.496V407.944V407.394V406.845V406.297V405.751V405.206V404.662V404.119V403.578V403.038V402.499V401.961V401.425V400.889V400.355V399.822V399.29V398.759V398.23V397.701V397.174V396.647V396.122V395.598V395.075V394.553V394.032V393.513V392.994V392.476V391.959V391.444V390.929V390.415V389.903V389.391V388.88V388.371V387.862V387.354V386.847V386.341V385.836V385.332V384.828V384.326V383.825V383.324V382.824V382.325V381.827V381.33V380.834V380.338V379.843V379.349V378.856V378.364V377.872V377.381V376.891V376.402V375.913V375.425V374.938V374.451V373.965V373.48V372.996V372.512V372.029V371.547V371.065V370.584V370.103V369.623V369.144V368.665V368.187V367.71V367.233V366.756V366.28V365.805V365.33V364.856V364.382V363.909V363.437V362.964V362.493V362.021V361.55V361.08V360.61V360.141V359.672V359.203V358.735V358.267V357.8V357.332V356.866V356.399V355.933V355.468V355.003V354.538V354.073V353.609V353.145V352.681V352.217V351.754V351.291V350.828V350.366V349.904V349.442V348.98V348.519V348.057V347.596V347.135V346.674V346.214V345.753V345.293V344.832V344.372V343.912V343.452V342.993V342.533V342.073V341.614V341.154V340.695V340.236V339.776V339.317V338.858V338.398V337.939V337.48V337.02V336.561V336.102V335.642V335.183V334.723V334.263V333.804V333.344V332.884V332.424V331.964V331.503V331.043V330.582V330.122V329.661V329.2V328.738V328.277V327.815V327.353V326.891V326.429V325.967V325.504V325.041V324.577V324.114V323.65V323.186V322.721V322.256V321.791V321.326V320.86V320.394V319.927V319.461V318.993V318.526V318.058V317.589V317.121V316.651V316.182V315.712V315.241V314.77V314.298V313.827V313.354V312.881V312.408V311.934V311.459V310.984V310.509V310.033V309.556V309.079V308.601V308.123V307.644V307.164V306.684V306.203V305.722V305.24V304.757V304.274V303.789V303.305V302.819V302.333V301.846V301.359V300.871V300.382V299.892V299.402V298.91V298.418V297.926V297.432V296.938V296.443V295.947V295.45V294.952V294.454V293.954V293.454V292.953V292.451V291.949V291.445V290.94V290.435V289.929V289.421V288.913V288.404V287.893V287.382V286.87V286.357V285.843V285.328V284.812V284.295V283.776V283.257V282.737V282.216V281.693V281.17V280.645V280.119V279.593V279.065V278.536V278.006V277.474V276.942V276.408V275.874V275.338V274.801V274.262V273.723V273.182V272.64V272.097V271.553V271.007V270.46V269.912V269.362V268.812V268.26V267.706V267.152V266.596V266.038V265.48V264.92V264.358V263.796V263.231V262.666V262.099V261.531V260.961V260.39V259.817V259.243V258.668V258.091V257.513V256.933V256.351V255.769V255.184V254.598V254.011V253.422V252.832V252.24V251.646V251.051V250.454V249.856V249.256V248.655V248.051V247.447V246.84V246.232V245.623V245.011V244.398V243.784V243.167V242.549V241.93V241.308V240.685V240.06V239.433V238.805V238.175V237.543V236.909V236.274V235.636V234.997V234.356V233.714V233.069V232.423V231.774V231.124V230.472V229.818V229.163V228.505V227.845V227.184V226.521V225.855V225.188V224.519V223.848V223.174V222.499V221.822V221.143V220.462V219.779V219.094V218.407V217.717V217.026V216.333V215.637V214.94V214.24V213.539V212.835V212.129V211.421V210.711V209.998V209.284V208.567V207.849V207.128V206.405V205.679V204.952V204.222V203.49V202.756V202.019V201.281V200.54V199.796V199.051Z" fill="#D9D9D9" stroke="#393434" stroke-width="3"/>
<circle cx="98.5" cy="508.5" r="11.5" fill="#FF0000" stroke="black" stroke-width="2"/>
<circle cx="214.5" cy="223.5" r="6.5" fill="#FF0000" stroke="black" stroke-width="2"/>
<circle cx="254.5" cy="223.5" r="6.5" fill="#FF0000" stroke="black" stroke-width="2"/>
<rect x="82.5562" y="250.865" width="288.701" height="230.894" rx="10" fill="#322D2D"/>
<rect x="314" y="489" width="56" height="6.20455" rx="3.10227" fill="#393434"/>
<rect x="314" y="499.636" width="56" height="6.20455" rx="3.10227" fill="#393434"/>
<rect x="314" y="511.159" width="56" height="6.20455" rx="3.10227" fill="#393434"/>
<rect x="314" y="521.795" width="56" height="6.20455" rx="3.10227" fill="#393434"/>
<path d="M120 74C120 97.7376 100.535 117 76.5 117C52.4649 117 33 97.7376 33 74C33 50.2624 52.4649 31 76.5 31C100.535 31 120 50.2624 120 74Z" fill="#D9D9D9" stroke="#393434" stroke-width="2"/>
<circle cx="76" cy="74" r="34" fill="#0D9CEC" stroke="#393434" stroke-width="2"/>
<circle cx="153.5" cy="37.5" r="6.5" fill="#FF0000" stroke="black" stroke-width="2"/>
<circle cx="201.5" cy="37.5" r="6.5" fill="#24922F" stroke="black" stroke-width="2"/>
<circle cx="177.5" cy="37.5" r="6.5" fill="#F6E65B" stroke="black" stroke-width="2"/>
<rect x="114" y="587" width="160" height="70" rx="6" fill="#64B876" stroke="#393434" stroke-width="2"/>
<g filter="url(#filter0_i_901_4)">
<path d="M0 134H202.5L295.736 74H514.5" stroke="#A10707" stroke-width="7"/>
</g>
<rect x="207.5" y="557.5" width="77" height="6" rx="3" fill="#393434" stroke="black"/>
<rect x="98.5" y="557.5" width="78" height="6" rx="3" fill="#D5002C" stroke="black"/>
<mask id="path-20-outside-1_901_4" maskUnits="userSpaceOnUse" x="307" y="573" width="99" height="99" fill="black">
<rect fill="white" x="307" y="573" width="99" height="99"/>
<path fill-rule="evenodd" clip-rule="evenodd" d="M354.5 574C347.873 574 342.5 579.373 342.5 586V608.5H320C313.373 608.5 308 613.873 308 620.5V624.5C308 631.127 313.373 636.5 320 636.5H342.5V659C342.5 665.627 347.873 671 354.5 671H358.5C365.127 671 370.5 665.627 370.5 659V636.5H393C399.627 636.5 405 631.127 405 624.5V620.5C405 613.873 399.627 608.5 393 608.5H370.5V586C370.5 579.373 365.127 574 358.5 574H354.5Z"/>
</mask>
<path fill-rule="evenodd" clip-rule="evenodd" d="M354.5 574C347.873 574 342.5 579.373 342.5 586V608.5H320C313.373 608.5 308 613.873 308 620.5V624.5C308 631.127 313.373 636.5 320 636.5H342.5V659C342.5 665.627 347.873 671 354.5 671H358.5C365.127 671 370.5 665.627 370.5 659V636.5H393C399.627 636.5 405 631.127 405 624.5V620.5C405 613.873 399.627 608.5 393 608.5H370.5V586C370.5 579.373 365.127 574 358.5 574H354.5Z" fill="#393434"/>
<path d="M342.5 608.5V609.5H343.5V608.5H342.5ZM342.5 636.5H343.5V635.5H342.5V636.5ZM370.5 636.5V635.5H369.5V636.5H370.5ZM370.5 608.5H369.5V609.5H370.5V608.5ZM343.5 586C343.5 579.925 348.425 575 354.5 575V573C347.32 573 341.5 578.82 341.5 586H343.5ZM343.5 608.5V586H341.5V608.5H343.5ZM320 609.5H342.5V607.5H320V609.5ZM309 620.5C309 614.425 313.925 609.5 320 609.5V607.5C312.82 607.5 307 613.32 307 620.5H309ZM309 624.5V620.5H307V624.5H309ZM320 635.5C313.925 635.5 309 630.575 309 624.5H307C307 631.68 312.82 637.5 320 637.5V635.5ZM342.5 635.5H320V637.5H342.5V635.5ZM343.5 659V636.5H341.5V659H343.5ZM354.5 670C348.425 670 343.5 665.075 343.5 659H341.5C341.5 666.18 347.32 672 354.5 672V670ZM358.5 670H354.5V672H358.5V670ZM369.5 659C369.5 665.075 364.575 670 358.5 670V672C365.68 672 371.5 666.18 371.5 659H369.5ZM369.5 636.5V659H371.5V636.5H369.5ZM393 635.5H370.5V637.5H393V635.5ZM404 624.5C404 630.575 399.075 635.5 393 635.5V637.5C400.18 637.5 406 631.68 406 624.5H404ZM404 620.5V624.5H406V620.5H404ZM393 609.5C399.075 609.5 404 614.425 404 620.5H406C406 613.32 400.18 607.5 393 607.5V609.5ZM370.5 609.5H393V607.5H370.5V609.5ZM369.5 586V608.5H371.5V586H369.5ZM358.5 575C364.575 575 369.5 579.925 369.5 586H371.5C371.5 578.82 365.68 573 358.5 573V575ZM354.5 575H358.5V573H354.5V575Z" fill="black" mask="url(#path-20-outside-1_901_4)"/>
<rect x="447.5" y="75.5" width="67" height="630" rx="8.5" fill="#F13030" stroke="#A10707" stroke-width="3"/>
<g filter="url(#filter1_i_901_4)">
<path d="M448 153H514.5" stroke="#A10707" stroke-width="4"/>
</g>
<g filter="url(#filter2_i_901_4)">
<path d="M448 638H514.5" stroke="#A10707" stroke-width="4"/>
</g>
<path d="M449 89V689.5C449 698.889 456.611 706.5 466 706.5H945.984C955.379 706.5 962.993 698.88 962.984 689.485L962.516 150.485C962.507 141.102 954.899 133.5 945.516 133.5H768.365C764.67 133.5 761.055 132.423 757.963 130.399L672.942 74.7742C670.175 72.9641 666.941 72 663.635 72H466C456.611 72 449 79.6112 449 89Z" fill="#F13030" stroke="black" stroke-width="2"/>
<rect x="847.5" y="489.5" width="68" height="6" rx="3" fill="#393434" stroke="black"/>
<g filter="url(#filter3_i_901_4)">
<rect x="-1.5" y="1.5" width="67" height="633.5" rx="8.5" transform="matrix(-1 0 0 1 515 71)" fill="#F13030" stroke="#A10707" stroke-width="3"/>
<g filter="url(#filter4_i_901_4)">
<path d="M516 150.437H449.5" stroke="#A10707" stroke-width="4"/>
</g>
<g filter="url(#filter5_i_901_4)">
<path d="M516 638.118H449.5" stroke="#A10707" stroke-width="4"/>
</g>
</g>
<rect x="549.5" y="343.5" width="356" height="127" rx="3.5" fill="#0D9CEC" stroke="#393434" stroke-width="3"/>
<g filter="url(#filter6_i_901_4)">
<path d="M617 342L617 472" stroke="#393434" stroke-width="3"/>
</g>
<g filter="url(#filter7_i_901_4)">
<path d="M548 407H907" stroke="#393434" stroke-width="3"/>
</g>
<g filter="url(#filter8_i_901_4)">
<path d="M763 342L763 472" stroke="#393434" stroke-width="3"/>
</g>
<g filter="url(#filter9_i_901_4)">
<path d="M836 342L836 472" stroke="#393434" stroke-width="3"/>
</g>
<g filter="url(#filter10_i_901_4)">
<path d="M690 342L690 472" stroke="#393434" stroke-width="3"/>
</g>
<rect x="548.5" y="189.5" width="358" height="113" rx="4.5" fill="#322D2D" stroke="black"/>
<rect x="559.5" y="614.5" width="167" height="56" rx="4.5" fill="#322D2D" stroke="black"/>
<rect x="752.5" y="614.5" width="167" height="56" rx="4.5" fill="#322D2D" stroke="black"/>
<rect x="767.5" y="489.5" width="68" height="6" rx="3" fill="#393434" stroke="black"/>
<circle cx="888" cy="557" r="21" fill="#F6E65B" stroke="black" stroke-width="2"/>
<rect x="618.5" y="512.5" width="63" height="59" rx="3.5" fill="#D9D9D9" stroke="#322D2D" stroke-width="3"/>
<rect x="552.5" y="512.5" width="63" height="59" rx="3.5" fill="#D9D9D9" stroke="#322D2D" stroke-width="3"/>
<defs>
<filter id="filter0_i_901_4" x="0" y="70.5" width="514.5" height="71" filterUnits="userSpaceOnUse" color-interpolation-filters="sRGB">
<feFlood flood-opacity="0" result="BackgroundImageFix"/>
<feBlend mode="normal" in="SourceGraphic" in2="BackgroundImageFix" result="shape"/>
<feColorMatrix in="SourceAlpha" type="matrix" values="0 0 0 0 0 0 0 0 0 0 0 0 0 0 0 0 0 0 127 0" result="hardAlpha"/>
<feOffset dy="4"/>
<feGaussianBlur stdDeviation="2"/>
<feComposite in2="hardAlpha" operator="arithmetic" k2="-1" k3="1"/>
<feColorMatrix type="matrix" values="0 0 0 0 0 0 0 0 0 0 0 0 0 0 0 0 0 0 0.25 0"/>
<feBlend mode="normal" in2="shape" result="effect1_innerShadow_901_4"/>
</filter>
<filter id="filter1_i_901_4" x="448" y="151" width="66.5" height="8" filterUnits="userSpaceOnUse" color-interpolation-filters="sRGB">
<feFlood flood-opacity="0" result="BackgroundImageFix"/>
<feBlend mode="normal" in="SourceGraphic" in2="BackgroundImageFix" result="shape"/>
<feColorMatrix in="SourceAlpha" type="matrix" values="0 0 0 0 0 0 0 0 0 0 0 0 0 0 0 0 0 0 127 0" result="hardAlpha"/>
<feOffset dy="4"/>
<feGaussianBlur stdDeviation="2"/>
<feComposite in2="hardAlpha" operator="arithmetic" k2="-1" k3="1"/>
<feColorMatrix type="matrix" values="0 0 0 0 0 0 0 0 0 0 0 0 0 0 0 0 0 0 0.25 0"/>
<feBlend mode="normal" in2="shape" result="effect1_innerShadow_901_4"/>
</filter>
<filter id="filter2_i_901_4" x="448" y="636" width="66.5" height="8" filterUnits="userSpaceOnUse" color-interpolation-filters="sRGB">
<feFlood flood-opacity="0" result="BackgroundImageFix"/>
<feBlend mode="normal" in="SourceGraphic" in2="BackgroundImageFix" result="shape"/>
<feColorMatrix in="SourceAlpha" type="matrix" values="0 0 0 0 0 0 0 0 0 0 0 0 0 0 0 0 0 0 127 0" result="hardAlpha"/>
<feOffset dy="4"/>
<feGaussianBlur stdDeviation="2"/>
<feComposite in2="hardAlpha" operator="arithmetic" k2="-1" k3="1"/>
<feColorMatrix type="matrix" values="0 0 0 0 0 0 0 0 0 0 0 0 0 0 0 0 0 0 0.25 0"/>
<feBlend mode="normal" in2="shape" result="effect1_innerShadow_901_4"/>
</filter>
<filter id="filter3_i_901_4" x="448" y="71" width="70" height="640.5" filterUnits="userSpaceOnUse" color-interpolation-filters="sRGB">
<feFlood flood-opacity="0" result="BackgroundImageFix"/>
<feBlend mode="normal" in="SourceGraphic" in2="BackgroundImageFix" result="shape"/>
<feColorMatrix in="SourceAlpha" type="matrix" values="0 0 0 0 0 0 0 0 0 0 0 0 0 0 0 0 0 0 127 0" result="hardAlpha"/>
<feOffset dy="4"/>
<feGaussianBlur stdDeviation="2"/>
<feComposite in2="hardAlpha" operator="arithmetic" k2="-1" k3="1"/>
<feColorMatrix type="matrix" values="0 0 0 0 0 0 0 0 0 0 0 0 0 0 0 0 0 0 0.25 0"/>
<feBlend mode="normal" in2="shape" result="effect1_innerShadow_901_4"/>
</filter>
<filter id="filter4_i_901_4" x="449.5" y="148.437" width="66.5" height="8" filterUnits="userSpaceOnUse" color-interpolation-filters="sRGB">
<feFlood flood-opacity="0" result="BackgroundImageFix"/>
<feBlend mode="normal" in="SourceGraphic" in2="BackgroundImageFix" result="shape"/>
<feColorMatrix in="SourceAlpha" type="matrix" values="0 0 0 0 0 0 0 0 0 0 0 0 0 0 0 0 0 0 127 0" result="hardAlpha"/>
<feOffset dy="4"/>
<feGaussianBlur stdDeviation="2"/>
<feComposite in2="hardAlpha" operator="arithmetic" k2="-1" k3="1"/>
<feColorMatrix type="matrix" values="0 0 0 0 0 0 0 0 0 0 0 0 0 0 0 0 0 0 0.25 0"/>
<feBlend mode="normal" in2="shape" result="effect1_innerShadow_901_4"/>
</filter>
<filter id="filter5_i_901_4" x="449.5" y="636.118" width="66.5" height="8" filterUnits="userSpaceOnUse" color-interpolation-filters="sRGB">
<feFlood flood-opacity="0" result="BackgroundImageFix"/>
<feBlend mode="normal" in="SourceGraphic" in2="BackgroundImageFix" result="shape"/>
<feColorMatrix in="SourceAlpha" type="matrix" values="0 0 0 0 0 0 0 0 0 0 0 0 0 0 0 0 0 0 127 0" result="hardAlpha"/>
<feOffset dy="4"/>
<feGaussianBlur stdDeviation="2"/>
<feComposite in2="hardAlpha" operator="arithmetic" k2="-1" k3="1"/>
<feColorMatrix type="matrix" values="0 0 0 0 0 0 0 0 0 0 0 0 0 0 0 0 0 0 0.25 0"/>
<feBlend mode="normal" in2="shape" result="effect1_innerShadow_901_4"/>
</filter>
<filter id="filter6_i_901_4" x="615.5" y="342" width="3" height="134" filterUnits="userSpaceOnUse" color-interpolation-filters="sRGB">
<feFlood flood-opacity="0" result="BackgroundImageFix"/>
<feBlend mode="normal" in="SourceGraphic" in2="BackgroundImageFix" result="shape"/>
<feColorMatrix in="SourceAlpha" type="matrix" values="0 0 0 0 0 0 0 0 0 0 0 0 0 0 0 0 0 0 127 0" result="hardAlpha"/>
<feOffset dy="4"/>
<feGaussianBlur stdDeviation="2"/>
<feComposite in2="hardAlpha" operator="arithmetic" k2="-1" k3="1"/>
<feColorMatrix type="matrix" values="0 0 0 0 0 0 0 0 0 0 0 0 0 0 0 0 0 0 0.25 0"/>
<feBlend mode="normal" in2="shape" result="effect1_innerShadow_901_4"/>
</filter>
<filter id="filter7_i_901_4" x="548" y="405.5" width="359" height="7" filterUnits="userSpaceOnUse" color-interpolation-filters="sRGB">
<feFlood flood-opacity="0" result="BackgroundImageFix"/>
<feBlend mode="normal" in="SourceGraphic" in2="BackgroundImageFix" result="shape"/>
<feColorMatrix in="SourceAlpha" type="matrix" values="0 0 0 0 0 0 0 0 0 0 0 0 0 0 0 0 0 0 127 0" result="hardAlpha"/>
<feOffset dy="4"/>
<feGaussianBlur stdDeviation="2"/>
<feComposite in2="hardAlpha" operator="arithmetic" k2="-1" k3="1"/>
<feColorMatrix type="matrix" values="0 0 0 0 0 0 0 0 0 0 0 0 0 0 0 0 0 0 0.25 0"/>
<feBlend mode="normal" in2="shape" result="effect1_innerShadow_901_4"/>
</filter>
<filter id="filter8_i_901_4" x="761.5" y="342" width="3" height="134" filterUnits="userSpaceOnUse" color-interpolation-filters="sRGB">
<feFlood flood-opacity="0" result="BackgroundImageFix"/>
<feBlend mode="normal" in="SourceGraphic" in2="BackgroundImageFix" result="shape"/>
<feColorMatrix in="SourceAlpha" type="matrix" values="0 0 0 0 0 0 0 0 0 0 0 0 0 0 0 0 0 0 127 0" result="hardAlpha"/>
<feOffset dy="4"/>
<feGaussianBlur stdDeviation="2"/>
<feComposite in2="hardAlpha" operator="arithmetic" k2="-1" k3="1"/>
<feColorMatrix type="matrix" values="0 0 0 0 0 0 0 0 0 0 0 0 0 0 0 0 0 0 0.25 0"/>
<feBlend mode="normal" in2="shape" result="effect1_innerShadow_901_4"/>
</filter>
<filter id="filter9_i_901_4" x="834.5" y="342" width="3" height="134" filterUnits="userSpaceOnUse" color-interpolation-filters="sRGB">
<feFlood flood-opacity="0" result="BackgroundImageFix"/>
<feBlend mode="normal" in="SourceGraphic" in2="BackgroundImageFix" result="shape"/>
<feColorMatrix in="SourceAlpha" type="matrix" values="0 0 0 0 0 0 0 0 0 0 0 0 0 0 0 0 0 0 127 0" result="hardAlpha"/>
<feOffset dy="4"/>
<feGaussianBlur stdDeviation="2"/>
<feComposite in2="hardAlpha" operator="arithmetic" k2="-1" k3="1"/>
<feColorMatrix type="matrix" values="0 0 0 0 0 0 0 0 0 0 0 0 0 0 0 0 0 0 0.25 0"/>
<feBlend mode="normal" in2="shape" result="effect1_innerShadow_901_4"/>
</filter>
<filter id="filter10_i_901_4" x="688.5" y="342" width="3" height="134" filterUnits="userSpaceOnUse" color-interpolation-filters="sRGB">
<feFlood flood-opacity="0" result="BackgroundImageFix"/>
<feBlend mode="normal" in="SourceGraphic" in2="BackgroundImageFix" result="shape"/>
<feColorMatrix in="SourceAlpha" type="matrix" values="0 0 0 0 0 0 0 0 0 0 0 0 0 0 0 0 0 0 127 0" result="hardAlpha"/>
<feOffset dy="4"/>
<feGaussianBlur stdDeviation="2"/>
<feComposite in2="hardAlpha" operator="arithmetic" k2="-1" k3="1"/>
<feColorMatrix type="matrix" values="0 0 0 0 0 0 0 0 0 0 0 0 0 0 0 0 0 0 0.25 0"/>
<feBlend mode="normal" in2="shape" result="effect1_innerShadow_901_4"/>
</filter>
</defs>
</svg>
